<?xml version="1.0" encoding="UTF-8"?>
<svg version="1.1" xmlns="http://www.w3.org/2000/svg" width="500" height="500">
<path d="M0 0 C0.44988281 0.42796875 0.89976562 0.8559375 1.36328125 1.296875 C1.36328125 1.956875 1.36328125 2.616875 1.36328125 3.296875 C2.02328125 3.296875 2.68328125 3.296875 3.36328125 3.296875 C9.73228019 10.86416498 16.11563047 20.37369906 17.36328125 30.296875 C18.1109375 30.01972656 18.85859375 29.74257812 19.62890625 29.45703125 C20.61375 29.09480469 21.59859375 28.73257813 22.61328125 28.359375 C23.5878125 27.99972656 24.56234375 27.64007813 25.56640625 27.26953125 C36.70376296 23.39634435 51.52329408 23.44663438 62.3046875 28.2265625 C62.98402344 28.57976562 63.66335938 28.93296875 64.36328125 29.296875 C65.11480469 29.67070312 65.86632812 30.04453125 66.640625 30.4296875 C67.49333984 30.85894531 67.49333984 30.85894531 68.36328125 31.296875 C68.36328125 31.956875 68.36328125 32.616875 68.36328125 33.296875 C69.10578125 33.565 69.84828125 33.833125 70.61328125 34.109375 C73.25390074 35.24964251 75.21880969 36.39067806 77.36328125 38.296875 C77.36328125 38.956875 77.36328125 39.616875 77.36328125 40.296875 C78.02328125 40.296875 78.68328125 40.296875 79.36328125 40.296875 C84.94632346 46.41273867 89.1950414 53.3781779 92.92578125 60.734375 C93.27205566 61.40791016 93.61833008 62.08144531 93.97509766 62.77539062 C95.79362191 66.49987713 96.52489445 69.18960992 96.36328125 73.296875 C95.78473389 73.51303467 95.20618652 73.72919434 94.61010742 73.9519043 C82.09296671 78.526772 82.09296671 78.526772 69.86328125 83.796875 C63.74129082 86.7008961 57.38165457 88.97626673 51.04296875 91.35546875 C46.57920302 93.04050852 42.17709706 94.75057776 37.86328125 96.796875 C31.80638037 99.67002029 25.52010973 101.9456157 19.23632812 104.26757812 C13.77458805 106.30492653 8.480452 108.57371937 3.18847656 111.01660156 C-1.65453563 113.21127456 -6.57390178 115.20193227 -11.51171875 117.171875 C-12.5171875 117.58695313 -13.52265625 118.00203125 -14.55859375 118.4296875 C-15.53054687 118.81640625 -16.5025 119.203125 -17.50390625 119.6015625 C-18.80497314 120.1272583 -18.80497314 120.1272583 -20.13232422 120.66357422 C-24.64488459 121.80469155 -28.60378293 120.05942959 -32.9140625 118.65234375 C-33.96513184 118.31146729 -35.01620117 117.97059082 -36.09912109 117.61938477 C-37.24590332 117.24483154 -38.39268555 116.87027832 -39.57421875 116.484375 C-42.1064497 115.66305198 -44.63891683 114.84251019 -47.171875 114.0234375 C-48.18078796 113.69693962 -48.18078796 113.69693962 -49.21008301 113.36384583 C-54.42672183 111.67908099 -59.65261491 110.02495773 -64.8828125 108.3828125 C-65.66890396 108.13598221 -66.45499542 107.88915192 -67.26490784 107.63484192 C-68.8706009 107.1307431 -70.47629856 106.62665892 -72.08200073 106.12258911 C-85.81717086 101.80814785 -99.52917243 97.4376021 -113.16162109 92.80712891 C-118.95317511 90.84008115 -124.74590693 88.94428831 -130.61328125 87.21484375 C-131.71559082 86.87936523 -132.81790039 86.54388672 -133.95361328 86.19824219 C-135.99617247 85.5797406 -138.04638273 84.98567266 -140.10498047 84.42285156 C-146.35246603 82.49525882 -149.24920973 80.16972102 -152.51855469 74.47973633 C-152.88754883 73.75939209 -153.25654297 73.03904785 -153.63671875 72.296875 C-154.35988281 70.93175781 -154.35988281 70.93175781 -155.09765625 69.5390625 C-158.32458893 61.18213427 -159.57850585 51.99328951 -156.63671875 43.36328125 C-150.98857833 32.82115552 -140.39207233 28.02318617 -129.44140625 24.61328125 C-125.44008046 23.51025418 -121.77689554 23.08986616 -117.63671875 23.296875 C-117.36085937 22.56082031 -117.085 21.82476562 -116.80078125 21.06640625 C-110.65601749 6.4468173 -97.47514575 -3.55176091 -83.23657227 -9.60131836 C-54.54393966 -21.07040888 -25.06411754 -18.6850736 0 0 Z " fill="#193053" transform="translate(267.63671875,132.703125)"/>
<path d="M0 0 C2.62784479 1.5228607 5.09287703 3.23433774 7.5625 5 C8.60954102 5.74648804 8.60954102 5.74648804 9.67773438 6.50805664 C11.10072228 7.52412848 12.52211884 8.54243277 13.94189453 9.56298828 C15.83155946 10.88239134 17.74949323 12.10615512 19.71484375 13.30859375 C27.53397114 18.37568582 27.53397114 18.37568582 28.8046875 22.8046875 C28.87923496 25.99366208 28.5246886 28.855784 28 32 C27.93039062 33.08667969 27.86078125 34.17335938 27.7890625 35.29296875 C27.24262859 41.35543146 27.24262859 41.35543146 26 44 C19.80573902 47.45597725 13.25903599 49.97218438 6.65625 52.53515625 C5.55383972 52.96699219 4.45142944 53.39882813 3.31561279 53.84375 C-1.53180499 55.74127535 -6.38327519 57.62834619 -11.23498535 59.51486206 C-15.04802817 60.99757928 -18.86022249 62.48246256 -22.671875 63.96875 C-23.31072884 64.21764544 -23.94958267 64.46654087 -24.60779572 64.72297859 C-33.77133674 68.2966002 -42.87525165 71.99413426 -51.953125 75.78125 C-55.18865051 77.11632488 -58.42527677 78.44869002 -61.66235352 79.77999878 C-63.70498359 80.62843644 -65.74273186 81.48873336 -67.77514648 82.36135864 C-86.72069419 90.48876904 -86.72069419 90.48876904 -95.45849609 87.15258789 C-96.71654053 86.58205688 -96.71654053 86.58205688 -98 86 C-99.67115767 85.44803884 -101.34694921 84.90988532 -103.02734375 84.38671875 C-104.66524516 83.82374158 -106.30194452 83.25725658 -107.9375 82.6875 C-116.21539653 79.85721755 -124.54130406 77.33356432 -132.98413086 75.04174805 C-137.863093 73.69756873 -142.39715666 72.10911959 -147 70 C-148.37705039 62.12384956 -149.64861381 53.70262738 -147 46 C-141.88709031 40.17898137 -134.53642077 37.15740437 -127.53027344 34.16601562 C-125.31961322 33.14728606 -123.63140953 32.09528225 -121.7265625 30.609375 C-119 29 -119 29 -115.7109375 29.015625 C-110.33068478 30.44280783 -105.2864597 32.56951384 -100.203125 34.82421875 C-95.02405378 36.91093191 -91.85939193 37.36663997 -86.671875 35.22509766 C-85.79015625 34.82081543 -84.9084375 34.4165332 -84 34 C-82.845 33.50419434 -81.69 33.00838867 -80.5 32.49755859 C-76.20855368 30.64804853 -71.94875465 28.73029344 -67.6875 26.8125 C-66.10933241 26.10607626 -64.53095956 25.4001109 -62.95239258 24.69458008 C-59.65495885 23.22037254 -56.35842597 21.74417679 -53.0625 20.26660156 C-45.56566459 16.90766279 -38.0581708 13.57269944 -30.5506897 10.23764038 C-28.23029205 9.20651568 -25.91037643 8.17431359 -23.59057617 7.1418457 C-22.15804877 6.50470115 -20.72551338 5.86757456 -19.29296875 5.23046875 C-18.65588989 4.94674408 -18.01881104 4.66301941 -17.36242676 4.37069702 C-15.57651063 3.57694662 -13.78828473 2.78839956 -12 2 C-11.0488607 1.57081772 -11.0488607 1.57081772 -10.07850647 1.13296509 C-3.9859069 -1.57225295 -3.9859069 -1.57225295 0 0 Z " fill="#041C42" transform="translate(336,271)"/>
<path d="M0 0 C1.06629639 0.4338501 2.13259277 0.8677002 3.23120117 1.31469727 C4.43760254 1.80180176 5.64400391 2.28890625 6.88696289 2.79077148 C8.18271481 3.32084246 9.47845011 3.85095407 10.77416992 4.38110352 C12.11651916 4.92488086 13.45913336 5.46800453 14.80200195 6.01049805 C17.53591099 7.11573183 20.26860324 8.22388919 23.00024414 9.3347168 C28.77181845 11.68069313 34.55315737 14.00223627 40.33666992 16.31860352 C41.35937988 16.72860596 42.38208984 17.1386084 43.43579102 17.56103516 C50.4701329 20.37190075 57.52983055 23.09370827 64.64916992 25.68188477 C67.96166992 26.94360352 67.96166992 26.94360352 70.83666992 28.29907227 C74.85024488 30.18961291 77.71482287 31.46496617 82.08666992 30.19360352 C83.73416804 29.49440758 85.35705249 28.73627489 86.96166992 27.94360352 C87.98518555 27.44731445 89.00870117 26.95102539 90.06323242 26.43969727 C92.65640832 25.16179628 95.23648052 23.85974252 97.81323242 22.54907227 C103.89575745 19.46280957 109.99679133 16.41564845 116.1204834 13.41201782 C117.42501923 12.76948918 118.72738346 12.12253144 120.02746582 11.47103882 C121.87782641 10.54440673 123.73508317 9.63318328 125.59448242 8.72485352 C126.67616699 8.18924805 127.75785156 7.65364258 128.87231445 7.10180664 C132.77951078 5.63699398 135.95270066 5.23124893 139.93359375 6.64282227 C140.5061792 6.96895508 141.07876465 7.29508789 141.66870117 7.63110352 C142.3298291 7.99647217 142.99095703 8.36184082 143.67211914 8.73828125 C144.3657959 9.1360376 145.05947266 9.53379395 145.77416992 9.94360352 C147.27094546 10.77130816 148.76970807 11.59542795 150.27026367 12.41625977 C151.03838379 12.83665527 151.80650391 13.25705078 152.59790039 13.69018555 C157.14911392 16.10352269 161.83342325 18.23451837 166.515625 20.37915039 C169.49495854 21.75086805 172.225648 23.1195889 174.96166992 24.94360352 C173.96166992 27.94360352 173.96166992 27.94360352 171.47509766 29.31884766 C170.37625244 29.78411865 169.27740723 30.24938965 168.14526367 30.72875977 C167.24584045 31.11467789 167.24584045 31.11467789 166.32824707 31.50839233 C164.35615075 32.3514044 162.37788102 33.17875143 160.39916992 34.00610352 C159.03298414 34.58666761 157.66718269 35.16813689 156.30175781 35.75048828 C146.86134691 39.76639255 137.38556473 43.70003212 127.90454102 47.61889648 C121.89595154 50.10921087 115.98696829 52.73101272 110.10620117 55.51000977 C105.45859003 57.62885857 100.73389215 59.55098182 95.99755859 61.46191406 C91.56420172 63.25500563 87.24228813 65.16336035 83.01635742 67.41235352 C75.78646149 69.28168022 67.6843221 64.80985316 61.08666992 62.31860352 C59.77666379 61.83001456 58.46635152 61.34224578 57.15576172 60.85522461 C55.03972767 60.06871908 52.92393908 59.28159871 50.80906677 58.49197388 C42.68191867 55.45830024 34.53063281 52.49124323 26.38067627 49.51953125 C12.14309554 44.32525639 -2.08051206 39.09373275 -16.28833008 33.81860352 C-17.00000336 33.55460754 -17.71167664 33.29061157 -18.44491577 33.01861572 C-27.33288777 29.72025717 -36.19819994 26.36844711 -45.03833008 22.94360352 C-45.03833008 21.95360352 -45.03833008 20.96360352 -45.03833008 19.94360352 C-43.17504883 18.33813477 -43.17504883 18.33813477 -40.72583008 16.75610352 C-39.92532227 16.22629883 -39.12481445 15.69649414 -38.30004883 15.15063477 C-36.03833008 13.94360352 -36.03833008 13.94360352 -33.03833008 13.94360352 C-33.03833008 13.28360352 -33.03833008 12.62360352 -33.03833008 11.94360352 C-30.83520508 10.46313477 -30.83520508 10.46313477 -27.78833008 8.75610352 C-24.4078838 6.85809881 -21.06189252 4.95843599 -17.78051758 2.89282227 C-16.7518457 2.24958008 -15.72317383 1.60633789 -14.66333008 0.94360352 C-13.7274707 0.34547852 -12.79161133 -0.25264648 -11.82739258 -0.86889648 C-7.55696267 -2.68711874 -4.28512187 -1.48989332 0 0 Z " fill="#061D42" transform="translate(165.038330078125,234.056396484375)"/>
<path d="M0 0 C0.95334229 0.36168777 1.90668457 0.72337555 2.88891602 1.09602356 C5.92855833 2.25129302 8.96422744 3.41663646 12 4.58203125 C14.0088737 5.34633656 16.01798631 6.11001423 18.02734375 6.87304688 C28.72659495 10.94454536 39.39119257 15.09255928 50 19.39453125 C50 20.71453125 50 22.03453125 50 23.39453125 C47.58295181 25.23233702 45.29477684 26.75010111 42.6875 28.26953125 C41.58208862 28.93251221 41.58208862 28.93251221 40.4543457 29.60888672 C38.31150961 30.88611719 36.157197 32.14176217 34 33.39453125 C33.0615625 33.9565625 32.123125 34.51859375 31.15625 35.09765625 C23.17171955 39.69634151 14.59423778 43.02503536 6.07568359 46.48974609 C3.76796799 47.45391266 3.76796799 47.45391266 0.80078125 49.1953125 C-3.42006485 51.0025646 -6.6338731 49.88533924 -10.86157227 48.36645508 C-11.83666748 47.94904053 -12.8117627 47.53162598 -13.81640625 47.1015625 C-14.90518066 46.63854736 -15.99395508 46.17553223 -17.11572266 45.69848633 C-18.25315918 45.20630615 -19.3905957 44.71412598 -20.5625 44.20703125 C-21.72313965 43.71033936 -22.8837793 43.21364746 -24.07958984 42.7019043 C-31.78229281 39.39217445 -39.42501662 35.9877926 -47 32.39453125 C-47 24.80453125 -47 17.21453125 -47 9.39453125 C-40.90159058 5.90972587 -34.89600371 2.92788437 -28.5 0.08203125 C-27.49324219 -0.38525391 -26.48648438 -0.85253906 -25.44921875 -1.33398438 C-24.46566406 -1.77033203 -23.48210937 -2.20667969 -22.46875 -2.65625 C-21.58638672 -3.05497314 -20.70402344 -3.45369629 -19.79492188 -3.86450195 C-12.92249576 -5.68646328 -6.35235412 -2.45223728 0 0 Z " fill="#071E43" transform="translate(162,276.60546875)"/>
<path d="M0 0 C0.99 0 1.98 0 3 0 C3 0.66 3 1.32 3 2 C3.66 2.33 4.32 2.66 5 3 C5 2.34 5 1.68 5 1 C6.0209375 1.433125 6.0209375 1.433125 7.0625 1.875 C10.32893093 3.12597355 13.62846123 4.07447955 17 5 C16.67 5.99 16.34 6.98 16 8 C16.61488281 7.98839844 17.22976562 7.97679687 17.86328125 7.96484375 C18.67152344 7.95582031 19.47976562 7.94679688 20.3125 7.9375 C21.51326172 7.92009766 21.51326172 7.92009766 22.73828125 7.90234375 C25 8 25 8 28 9 C28 9.66 28 10.32 28 11 C29.9600281 12.63676257 29.9600281 12.63676257 32 14 C27.5762124 13.39092779 23.68385366 12.28583066 19.5078125 10.71484375 C18.30898437 10.26689453 17.11015625 9.81894531 15.875 9.35742188 C14.62495526 8.88423277 13.3749558 8.410924 12.125 7.9375 C10.85174939 7.45978804 9.57831348 6.98256966 8.3046875 6.50585938 C5.20126933 5.34207756 2.09982553 4.17331032 -1 3 C-0.67 2.01 -0.34 1.02 0 0 Z " fill="#3A4156" transform="translate(175,274)"/>
<path d="M0 0 C2 1 2 1 3 3 C-0.59776804 4.53630085 -4.20411111 6.05133278 -7.8125 7.5625 C-8.83666016 8.00013672 -9.86082031 8.43777344 -10.91601562 8.88867188 C-11.89892578 9.29794922 -12.88183594 9.70722656 -13.89453125 10.12890625 C-14.80050049 10.51119385 -15.70646973 10.89348145 -16.63989258 11.28735352 C-19 12 -19 12 -22 11 C-22 10.34 -22 9.68 -22 9 C-16.25 6 -16.25 6 -14 6 C-13.67 5.34 -13.34 4.68 -13 4 C-11.35 4 -9.7 4 -8 4 C-8 3.34 -8 2.68 -8 2 C-6.2984375 1.7834375 -6.2984375 1.7834375 -4.5625 1.5625 C-1.19222799 1.38828522 -1.19222799 1.38828522 0 0 Z " fill="#202C45" transform="translate(358,313)"/>
<path d="M0 0 C0.66 0.33 1.32 0.66 2 1 C1.67 1.33 1.34 1.66 1 2 C1.99 2.66 2.98 3.32 4 4 C4 4.66 4 5.32 4 6 C4.66 6.33 5.32 6.66 6 7 C5.01 7 4.02 7 3 7 C2.67 7.99 2.34 8.98 2 10 C1.34 9.67 0.68 9.34 0 9 C-0.86625 9.556875 -0.86625 9.556875 -1.75 10.125 C-4 11 -4 11 -7.25 9.625 C-8.1575 9.08875 -9.065 8.5525 -10 8 C-6.97727468 4.74475735 -3.74281699 2.38179263 0 0 Z " fill="#29334F" transform="translate(129,248)"/>
<path d="M0 0 C2.03833424 1.2739589 4.03852126 2.61061923 6 4 C6 4.66 6 5.32 6 6 C6.66 6 7.32 6 8 6 C9.7265625 8.1875 9.7265625 8.1875 11.625 11 C12.25664062 11.928125 12.88828125 12.85625 13.5390625 13.8125 C14.26222656 14.8953125 14.26222656 14.8953125 15 16 C14.34 16.66 13.68 17.32 13 18 C12.278125 17.175 11.55625 16.35 10.8125 15.5 C8.27082634 12.75592194 8.27082634 12.75592194 5.1875 12.6875 C4.465625 12.790625 3.74375 12.89375 3 13 C2.67 12.34 2.34 11.68 2 11 C2.33 10.34 2.66 9.68 3 9 C3.66 9 4.32 9 5 9 C5 8.34 5 7.68 5 7 C4.01 7.33 3.02 7.66 2 8 C-0.1519437 4.77208445 -0.20086443 3.71599191 0 0 Z " fill="#313C54" transform="translate(263,130)"/>
<path d="M0 0 C4.86872054 0.59559106 8.59328841 2.72477415 12.8125 5.0625 C13.50537109 5.43955078 14.19824219 5.81660156 14.91210938 6.20507812 C16.61128985 7.13083852 18.30609425 8.06462312 20 9 C19.67 9.99 19.34 10.98 19 12 C15.85190601 12.98940097 14.37166741 13.14359877 11.25 11.9375 C9 10 9 10 8.1875 6.8125 C8.125625 5.884375 8.06375 4.95625 8 4 C7.01 4.33 6.02 4.66 5 5 C2.3125 3.6875 2.3125 3.6875 0 2 C0 1.34 0 0.68 0 0 Z " fill="#30394F" transform="translate(320,250)"/>
<path d="M0 0 C-4.00643311 4.00643311 -9.57783004 5.70647579 -15 7 C-19.28945141 6.68168305 -22.98346998 5.48946322 -27 4 C-28.74948214 3.43589141 -30.49943171 2.87322891 -32.25 2.3125 C-33.4875 1.879375 -34.725 1.44625 -36 1 C-32.34811918 -0.07174763 -29.73567172 0.23588533 -26 1 C-26 1.66 -26 2.32 -26 3 C-18.72810387 3.44295814 -13.42077428 3.19587849 -6.9140625 -0.17578125 C-4.3366904 -1.28562923 -2.58336478 -1.00001217 0 0 Z " fill="#434859" transform="translate(265,353)"/>
<path d="M0 0 C1.65 0 3.3 0 5 0 C5 1.32 5 2.64 5 4 C2.91964126 5.7015651 1.03696044 7.01849456 -1.25 8.375 C-2.12978516 8.94541016 -2.12978516 8.94541016 -3.02734375 9.52734375 C-4.765625 10.5859375 -4.765625 10.5859375 -8 12 C-10.421875 11.2265625 -10.421875 11.2265625 -12 10 C-11.38125 9.938125 -10.7625 9.87625 -10.125 9.8125 C-7.72238859 9.171081 -7.72238859 9.171081 -6.75 6.4375 C-6.5025 5.633125 -6.255 4.82875 -6 4 C-4.35 4 -2.7 4 -1 4 C-0.67 2.68 -0.34 1.36 0 0 Z " fill="#1C243C" transform="translate(207,296)"/>
<path d="M0 0 C0.66 0.33 1.32 0.66 2 1 C1.01 1.33 0.02 1.66 -1 2 C-1 2.66 -1 3.32 -1 4 C-1.66 4 -2.32 4 -3 4 C-3 4.66 -3 5.32 -3 6 C-13.61137616 10.12558024 -13.61137616 10.12558024 -18.125 10.625 C-19.07375 10.74875 -20.0225 10.8725 -21 11 C-21.33 11.66 -21.66 12.32 -22 13 C-22.99 12.34 -23.98 11.68 -25 11 C-20.88061575 9.13316794 -16.75366476 7.28370576 -12.625 5.4375 C-10.8615625 4.63795898 -10.8615625 4.63795898 -9.0625 3.82226562 C-7.94101562 3.32275391 -6.81953125 2.82324219 -5.6640625 2.30859375 C-4.10872803 1.60947876 -4.10872803 1.60947876 -2.52197266 0.89624023 C-1.68972168 0.60048096 -0.8574707 0.30472168 0 0 Z " fill="#393E54" transform="translate(311,279)"/>
<path d="M0 0 C3.94933569 3.94933569 5.84814079 7.05816748 8.25 11.9375 C8.61351562 12.64068359 8.97703125 13.34386719 9.3515625 14.06835938 C11.23239368 17.84062793 12.50768784 20.67619191 12 25 C9.09399739 26.25664978 7.20395416 27 4 27 C4 26.34 4 25.68 4 25 C7.465 24.505 7.465 24.505 11 24 C11 23.01 11 22.02 11 21 C10.34 21 9.68 21 9 21 C6 14.375 6 14.375 6 11 C5.01 11 4.02 11 3 11 C2.01 7.37 1.02 3.74 0 0 Z " fill="#3D4456" transform="translate(352,181)"/>
<path d="M0 0 C0.33 0.99 0.66 1.98 1 3 C-2.39561509 4.27335566 -5.4651998 5.09513414 -9.0625 5.375 C-13.28838305 6.04577509 -14.97425918 7.06881358 -18 10 C-18.66 9.67 -19.32 9.34 -20 9 C-19.34 8.34 -18.68 7.68 -18 7 C-19.32 6.67 -20.64 6.34 -22 6 C-17.04352085 3.69900773 -12.42983492 2.27640804 -7.0625 1.3125 C-6.03672852 1.11817383 -6.03672852 1.11817383 -4.99023438 0.91992188 C-3.32816202 0.60610402 -1.66425873 0.30200834 0 0 Z " fill="#394057" transform="translate(151,155)"/>
<path d="M0 0 C0.66 0.33 1.32 0.66 2 1 C-1.92685181 6.6284876 -6.50756666 9.70735948 -13 12 C-15.8125 12.1328125 -15.8125 12.1328125 -18 12 C-14.87189356 8.68767688 -11.32001438 6.578774 -7.4375 4.25 C-6.75236328 3.82589844 -6.06722656 3.40179688 -5.36132812 2.96484375 C-3.61215357 1.91087596 -1.80905993 0.947503 0 0 Z " fill="#363851" transform="translate(209,305)"/>
<path d="M0 0 C3.5382203 0.62341391 6.73293028 1.55321845 10.08203125 2.84765625 C11.01337891 3.20537109 11.94472656 3.56308594 12.90429688 3.93164062 C14.34385742 4.49141602 14.34385742 4.49141602 15.8125 5.0625 C16.79154297 5.43955078 17.77058594 5.81660156 18.77929688 6.20507812 C21.1876001 7.13315595 23.59441614 8.06490116 26 9 C26 9.33 26 9.66 26 10 C24.02 10 22.04 10 20 10 C20 9.34 20 8.68 20 8 C19.01 8.33 18.02 8.66 17 9 C14.7734375 8.546875 14.7734375 8.546875 12.375 7.75 C11.57835937 7.49734375 10.78171875 7.2446875 9.9609375 6.984375 C8 6 8 6 7 3 C6.21625 3.20625 5.4325 3.4125 4.625 3.625 C3.75875 3.74875 2.8925 3.8725 2 4 C1.34 3.34 0.68 2.68 0 2 C0 1.34 0 0.68 0 0 Z " fill="#383E51" transform="translate(165,279)"/>
<path d="M0 0 C0.33 0.66 0.66 1.32 1 2 C2.11375 1.7215625 2.11375 1.7215625 3.25 1.4375 C5.94990963 1.00796892 7.44631077 1.14877026 10 2 C10 2.66 10 3.32 10 4 C11.11375 4.0825 12.2275 4.165 13.375 4.25 C14.57125 4.4975 15.7675 4.745 17 5 C18.2265625 7.046875 18.2265625 7.046875 19 9 C11.27670981 7.56006454 4.2717751 4.94467554 -3 2 C-2.01 1.34 -1.02 0.68 0 0 Z " fill="#394056" transform="translate(223,292)"/>
<path d="M0 0 C1.98 0.99 1.98 0.99 4 2 C4 2.99 4 3.98 4 5 C4.99 5 5.98 5 7 5 C7 5.66 7 6.32 7 7 C8.134375 7.28875 9.26875 7.5775 10.4375 7.875 C11.613125 8.24625 12.78875 8.6175 14 9 C14.33 9.66 14.66 10.32 15 11 C13.375 12.1875 13.375 12.1875 11 13 C5.66448268 11.41069697 3.58835819 8.40864261 0.8828125 3.83984375 C0 2 0 2 0 0 Z " fill="#424A60" transform="translate(114,203)"/>
<path d="M0 0 C1.44826172 0.07831055 1.44826172 0.07831055 2.92578125 0.15820312 C5.2842825 0.28663636 7.64222045 0.42153189 10 0.5625 C10 0.8925 10 1.2225 10 1.5625 C0.76 2.2225 -8.48 2.8825 -18 3.5625 C-18.33 2.5725 -18.66 1.5825 -19 0.5625 C-12.55447615 -0.46361524 -6.50333305 -0.39019998 0 0 Z " fill="#48515F" transform="translate(224,116.4375)"/>
<path d="M0 0 C2.31 0 4.62 0 7 0 C7 0.66 7 1.32 7 2 C8.0725 1.979375 9.145 1.95875 10.25 1.9375 C13.22328174 1.9870547 15.21006039 2.2560161 18 3 C19.299375 2.938125 19.299375 2.938125 20.625 2.875 C21.40875 2.91625 22.1925 2.9575 23 3 C23.99 4.485 23.99 4.485 25 6 C24.67 6.66 24.34 7.32 24 8 C15.83600499 6.08927776 7.9153982 3.76477561 0 1 C0 0.67 0 0.34 0 0 Z " fill="#484F62" transform="translate(128,216)"/>
<path d="M0 0 C1.32 0.66 2.64 1.32 4 2 C0.21300973 4.52466018 -3.72469845 6.06487938 -7.9375 7.75 C-8.74896484 8.09160156 -9.56042969 8.43320312 -10.39648438 8.78515625 C-11.57500977 9.25501953 -11.57500977 9.25501953 -12.77734375 9.734375 C-13.49140381 10.02538086 -14.20546387 10.31638672 -14.94116211 10.61621094 C-17.59033576 11.1100448 -18.75630809 10.39461654 -21 9 C-19.5459375 8.814375 -19.5459375 8.814375 -18.0625 8.625 C-17.051875 8.41875 -16.04125 8.2125 -15 8 C-14.67 7.34 -14.34 6.68 -14 6 C-9.90805199 4.58355646 -6.33291912 3.73739884 -2 4 C-2 3.34 -2 2.68 -2 2 C-1.34 2 -0.68 2 0 2 C0 1.34 0 0.68 0 0 Z " fill="#494E62" transform="translate(287,341)"/>
<path d="M0 0 C4.16138263 -0.08159574 7.9472484 0.01751476 12 1 C12 2.32 12 3.64 12 5 C13.98 5 15.96 5 18 5 C18 5.66 18 6.32 18 7 C18.99 7.33 19.98 7.66 21 8 C16.63030141 7.35116597 12.48413462 6.3835331 8.25 5.125 C7.12078125 4.79757813 5.9915625 4.47015625 4.828125 4.1328125 C2 3 2 3 0 0 Z " fill="#3B465B" transform="translate(185,233)"/>
<path d="M0 0 C4.28379643 0.71260094 8.25093853 2.06921736 12.3125 3.5625 C12.95767578 3.79646484 13.60285156 4.03042969 14.26757812 4.27148438 C15.84621219 4.84447007 17.42327026 5.42179464 19 6 C9.13043478 8.56521739 9.13043478 8.56521739 6 7 C6 6.34 6 5.68 6 5 C5.34 5 4.68 5 4 5 C3.71125 4.360625 3.4225 3.72125 3.125 3.0625 C2.17176549 0.84793921 2.17176549 0.84793921 0 0 Z " fill="#333B53" transform="translate(224,302)"/>
<path d="M0 0 C0.99 0.66 1.98 1.32 3 2 C0.3789879 3.19706817 -2.24614696 4.38288646 -4.875 5.5625 C-5.62136719 5.90474609 -6.36773437 6.24699219 -7.13671875 6.59960938 C-9.06549332 7.45973857 -11.0311033 8.23616798 -13 9 C-13.66 8.67 -14.32 8.34 -15 8 C-10.95231575 3.19337495 -8.01919118 1.98675265 -2 1 C-1.34 1.33 -0.68 1.66 0 2 C0 1.34 0 0.68 0 0 Z " fill="#293044" transform="translate(175,317)"/>
<path d="M0 0 C0.33 1.32 0.66 2.64 1 4 C0.34 4 -0.32 4 -1 4 C-0.97679688 4.88042969 -0.95359375 5.76085937 -0.9296875 6.66796875 C-0.91164063 7.82941406 -0.89359375 8.99085938 -0.875 10.1875 C-0.85179688 11.33605469 -0.82859375 12.48460937 -0.8046875 13.66796875 C-0.99515848 16.91740372 -1.60639873 19.08660521 -3 22 C-3.33 22 -3.66 22 -4 22 C-4.738041 6.07061503 -4.738041 6.07061503 0 0 Z " fill="#3A3F53" transform="translate(114,172)"/>
<path d="M0 0 C0.66 0 1.32 0 2 0 C1 3 1 3 -1.07421875 4.203125 C-9.72106304 7.66703273 -9.72106304 7.66703273 -15 6 C-13.66783496 3.33566992 -12.52848372 3.25552841 -9.75 2.3125 C-6.14749309 1.16337499 -3.66882211 0.6981599 0 2 C0 1.34 0 0.68 0 0 Z " fill="#43495E" transform="translate(336,214)"/>
<path d="M0 0 C4.06534057 -0.28883414 6.33058355 0.42124391 9.8125 2.5 C10.60269531 2.9640625 11.39289063 3.428125 12.20703125 3.90625 C12.79871094 4.2671875 13.39039063 4.628125 14 5 C13.34 5.66 12.68 6.32 12 7 C8.875 6.625 8.875 6.625 6 6 C6 5.34 6 4.68 6 4 C4.35 3.67 2.7 3.34 1 3 C0.67 2.01 0.34 1.02 0 0 Z " fill="#2B3248" transform="translate(306,244)"/>
<path d="M0 0 C0.66 0.33 1.32 0.66 2 1 C1.34 1.66 0.68 2.32 0 3 C-0.99 3 -1.98 3 -3 3 C-3.165 3.639375 -3.33 4.27875 -3.5 4.9375 C-5 7 -5 7 -6.87890625 7.41796875 C-7.59949219 7.48628906 -8.32007813 7.55460938 -9.0625 7.625 C-10.361875 7.74875 -11.66125 7.8725 -13 8 C-13.33 8.66 -13.66 9.32 -14 10 C-14.99 10.495 -14.99 10.495 -16 11 C-16.66 10.34 -17.32 9.68 -18 9 C-17.49025635 8.76289307 -16.9805127 8.52578613 -16.45532227 8.28149414 C-14.15665983 7.21074407 -11.85956706 6.13666805 -9.5625 5.0625 C-8.76005859 4.68931641 -7.95761719 4.31613281 -7.13085938 3.93164062 C-6.36708984 3.57392578 -5.60332031 3.21621094 -4.81640625 2.84765625 C-4.10943604 2.51773682 -3.40246582 2.18781738 -2.67407227 1.84790039 C-1.0108841 1.11465443 -1.0108841 1.11465443 0 0 Z " fill="#494E62" transform="translate(280,248)"/>
<path d="M0 0 C2.375 1.5 2.375 1.5 4 3 C0.49595163 4.16801612 -1.41087121 3.59818813 -5 3 C-8.0745356 3.7763932 -8.0745356 3.7763932 -10 6 C-10.99 5.67 -11.98 5.34 -13 5 C-13 5.66 -13 6.32 -13 7 C-13.99 6.67 -14.98 6.34 -16 6 C-11.08105211 2.02700363 -6.49242581 -0.84683815 0 0 Z " fill="#44455A" transform="translate(303,240)"/>
<path d="M0 0 C6.33393082 -0.34548714 11.10261508 0.70657253 17 3 C17 3.66 17 4.32 17 5 C17.66 5.33 18.32 5.66 19 6 C14.54856736 5.35731596 10.41118353 4.29333357 6.125 2.9375 C4.97257813 2.57527344 3.82015625 2.21304687 2.6328125 1.83984375 C1.76398438 1.56269531 0.89515625 1.28554688 0 1 C0 0.67 0 0.34 0 0 Z " fill="#3F4558" transform="translate(210,347)"/>
<path d="M0 0 C2.04049422 1.2704964 4.05017465 2.59431196 6 4 C3 6 3 6 1 6 C-2 2.53846154 -2 2.53846154 -2 0 C-2.83144531 0.41572266 -2.83144531 0.41572266 -3.6796875 0.83984375 C-6.453125 2.2265625 -9.2265625 3.61328125 -12 5 C-12.66 4.34 -13.32 3.68 -14 3 C-4.36861885 -1.88913248 -4.36861885 -1.88913248 0 0 Z " fill="#4F5164" transform="translate(336,271)"/>
<path d="M0 0 C-2.70258963 4.05388445 -5.51042324 4.50347441 -10 6 C-10 5.34 -10 4.68 -10 4 C-10.99 3.67 -11.98 3.34 -13 3 C-8.30609874 -0.77801809 -5.8692391 -1.40861738 0 0 Z " fill="#323952" transform="translate(224,301)"/>
<path d="M0 0 C-2.23943282 3.35914922 -3.26842083 3.81681636 -7 5 C-10 5 -10 5 -13 3 C-8.1942374 -0.17180332 -5.81427302 -1.70173845 0 0 Z " fill="#394058" transform="translate(162,233)"/>
<path d="M0 0 C2 1 2 1 3 3 C-1.62197306 5.21854707 -4.76824163 6.38281159 -10 6 C-9.4375 4.0625 -9.4375 4.0625 -8 2 C-4.4375 1.3125 -4.4375 1.3125 -1 1 C-0.67 0.67 -0.34 0.34 0 0 Z " fill="#262E46" transform="translate(358,313)"/>
<path d="M0 0 C0 0.99 0 1.98 0 3 C-5.27877559 5.14450258 -10.59417309 7.1980577 -16 9 C-16.66 8.34 -17.32 7.68 -18 7 C-15.0173094 5.47551369 -12.181798 4.06059933 -9 3 C-7.824375 2.484375 -6.64875 1.96875 -5.4375 1.4375 C-2 0 -2 0 0 0 Z " fill="#06142F" transform="translate(334,271)"/>
<path d="M0 0 C-3.09852301 2.06568201 -6.19392874 3.60295419 -9.5625 5.1875 C-10.71878906 5.73792969 -11.87507813 6.28835938 -13.06640625 6.85546875 C-14.03449219 7.23316406 -15.00257813 7.61085938 -16 8 C-16.66 7.67 -17.32 7.34 -18 7 C-17.67 6.01 -17.34 5.02 -17 4 C-12.545 3.505 -12.545 3.505 -8 3 C-8 2.34 -8 1.68 -8 1 C-5.29120665 -0.35439668 -2.99066732 -0.06501451 0 0 Z " fill="#575B6A" transform="translate(323,268)"/>
<path d="M0 0 C2.64 0 5.28 0 8 0 C8 0.66 8 1.32 8 2 C8.886875 1.79375 9.77375 1.5875 10.6875 1.375 C14.2252711 0.97449761 15.86632967 1.43316484 19 3 C18.01 3.99 17.02 4.98 16 6 C10.63904723 4.41078475 5.29156027 2.81027062 0 1 C0 0.67 0 0.34 0 0 Z " fill="#343C54" transform="translate(127,259)"/>
<path d="M0 0 C-1.2065625 0.9590625 -1.2065625 0.9590625 -2.4375 1.9375 C-4.2750504 3.40603502 -4.2750504 3.40603502 -6 5 C-8.67058851 5.14115161 -11.32432238 5.04247107 -14 5 C-10.69595986 0.91853865 -5.12984719 -2.25713276 0 0 Z " fill="#384157" transform="translate(189,124)"/>
<path d="M0 0 C1.81618856 1.11903546 3.62785526 2.24541284 5.4375 3.375 C6.44683594 4.00148438 7.45617187 4.62796875 8.49609375 5.2734375 C11 7 11 7 12 9 C3.5 8.01923077 3.5 8.01923077 1 6 C0.61157747 4.00996506 0.27431388 2.00894575 0 0 Z " fill="#363D54" transform="translate(351,282)"/>
<path d="M0 0 C1.875 1.625 1.875 1.625 3 3 C-0.69037278 4.37095624 -2.70883835 3.60010967 -6.25 2.0625 C-7.14203125 1.68222656 -8.0340625 1.30195313 -8.953125 0.91015625 C-9.62859375 0.60980469 -10.3040625 0.30945313 -11 0 C-11 -0.33 -11 -0.66 -11 -1 C-6.70414377 -2.26348713 -4.08804005 -1.77740872 0 0 Z " fill="#394059" transform="translate(157,323)"/>
<path d="M0 0 C4.55737263 0.43820891 7.57653445 0.85041169 11 4 C10.67 4.66 10.34 5.32 10 6 C6.7 5.01 3.4 4.02 0 3 C0 2.01 0 1.02 0 0 Z " fill="#2C3348" transform="translate(163,270)"/>
<path d="M0 0 C6.10313344 -0.51941561 10.70539436 0.88686278 16 4 C16.33 4.66 16.66 5.32 17 6 C5.47835991 2.92482916 5.47835991 2.92482916 0 1 C0 0.67 0 0.34 0 0 Z " fill="#4F5368" transform="translate(206,241)"/>
<path d="M0 0 C2.03833424 1.2739589 4.03852126 2.61061923 6 4 C6 4.66 6 5.32 6 6 C6.66 6 7.32 6 8 6 C7.67 6.66 7.34 7.32 7 8 C6.401875 7.67 5.80375 7.34 5.1875 7 C2.94613529 5.79212012 2.94613529 5.79212012 0 6 C-0.66 5.01 -1.32 4.02 -2 3 C-1.34 2.01 -0.68 1.02 0 0 Z " fill="#434C62" transform="translate(339,167)"/>
<path d="M0 0 C1.22589844 0.01353516 1.22589844 0.01353516 2.4765625 0.02734375 C3.41628906 0.04474609 3.41628906 0.04474609 4.375 0.0625 C4.375 1.0525 4.375 2.0425 4.375 3.0625 C3.055 2.7325 1.735 2.4025 0.375 2.0625 C0.375 2.7225 0.375 3.3825 0.375 4.0625 C-1.935 4.3925 -4.245 4.7225 -6.625 5.0625 C-6.625 3.7425 -6.625 2.4225 -6.625 1.0625 C-4.21954362 -0.14022819 -2.67503047 -0.03821472 0 0 Z " fill="#061635" transform="translate(314.625,328.9375)"/>
<path d="M0 0 C2.71329897 0.86031431 4.40863329 1.97772465 6.5625 3.8125 C6.2325 4.4725 5.9025 5.1325 5.5625 5.8125 C1.83816618 4.5999262 -1.81552806 3.30390021 -5.4375 1.8125 C-2.4375 -0.1875 -2.4375 -0.1875 0 0 Z " fill="#333D51" transform="translate(140.4375,316.1875)"/>
<path d="M0 0 C0.66 0.33 1.32 0.66 2 1 C1.01 2.485 1.01 2.485 0 4 C-0.66 4 -1.32 4 -2 4 C-2.33 4.99 -2.66 5.98 -3 7 C-4.98 7 -6.96 7 -9 7 C-6.25604436 4.05278838 -3.61662784 1.80831392 0 0 Z " fill="#3F4458" transform="translate(147,237)"/>
<path d="M0 0 C-0.66 0 -1.32 0 -2 0 C-2.226875 0.61875 -2.45375 1.2375 -2.6875 1.875 C-4.37929835 4.61410209 -5.99244161 5.05024472 -9 6 C-8.34 5.01 -7.68 4.02 -7 3 C-8.32 2.67 -9.64 2.34 -11 2 C-3.57142857 -1.57142857 -3.57142857 -1.57142857 0 0 Z " fill="#454E64" transform="translate(140,159)"/>
<path d="M0 0 C1.98 0.66 3.96 1.32 6 2 C6 2.66 6 3.32 6 4 C7.65 4 9.3 4 11 4 C11 4.66 11 5.32 11 6 C9.02 6 7.04 6 5 6 C5 5.34 5 4.68 5 4 C3.68 4.33 2.36 4.66 1 5 C0.67 3.35 0.34 1.7 0 0 Z " fill="#071331" transform="translate(200,250)"/>
<path d="M0 0 C-0.66 0 -1.32 0 -2 0 C-2 0.99 -2 1.98 -2 3 C-8.0546875 3.9765625 -8.0546875 3.9765625 -10 4 C-10.66 3.34 -11.32 2.68 -12 2 C-10.75579353 1.4654744 -9.50429064 0.94791389 -8.25 0.4375 C-7.55390625 0.14746094 -6.8578125 -0.14257812 -6.140625 -0.44140625 C-3.69987216 -1.07831803 -2.3596345 -0.80248831 0 0 Z " fill="#475064" transform="translate(200,120)"/>
<path d="M0 0 C3 3.625 3 3.625 3 7 C3.66 7 4.32 7 5 7 C5 7.99 5 8.98 5 10 C3.02 10.33 1.04 10.66 -1 11 C-0.649375 10.484375 -0.29875 9.96875 0.0625 9.4375 C1.3615641 6.05993333 0.67217681 3.49531943 0 0 Z " fill="#1B2742" transform="translate(358,195)"/>
<path d="M0 0 C1.58467728 0.28427417 3.1677057 0.57774818 4.75 0.875 C6.07257813 1.11863281 6.07257813 1.11863281 7.421875 1.3671875 C9.86947744 1.96796264 11.80599857 2.77997117 14 4 C14 4.33 14 4.66 14 5 C12.56208484 4.85831863 11.1246763 4.71148957 9.6875 4.5625 C8.88699219 4.48128906 8.08648437 4.40007812 7.26171875 4.31640625 C5 4 5 4 2 3 C2 2.34 2 1.68 2 1 C1.34 0.67 0.68 0.34 0 0 Z " fill="#06132E" transform="translate(195,340)"/>
<path d="M0 0 C0.66 0.33 1.32 0.66 2 1 C0.35 2.98 -1.3 4.96 -3 7 C-4.65 6.67 -6.3 6.34 -8 6 C-5.63404067 3.38499232 -3.13950774 1.61000397 0 0 Z " fill="#474C5F" transform="translate(209,305)"/>
<path d="M0 0 C1.32 0.33 2.64 0.66 4 1 C2.7636832 1.89422914 1.51028438 2.76487891 0.25 3.625 C-0.44609375 4.11226563 -1.1421875 4.59953125 -1.859375 5.1015625 C-4 6 -4 6 -6.265625 5.1484375 C-6.83796875 4.76945312 -7.4103125 4.39046875 -8 4 C-6.68 3.67 -5.36 3.34 -4 3 C-4 2.34 -4 1.68 -4 1 C-2.68 1.33 -1.36 1.66 0 2 C0 1.34 0 0.68 0 0 Z " fill="#454759" transform="translate(203,302)"/>
<path d="M0 0 C3.43595166 1.52708963 6.11912454 3.59927045 9 6 C6.69 6.33 4.38 6.66 2 7 C1.34 4.69 0.68 2.38 0 0 Z " fill="#4A4F63" transform="translate(342,276)"/>
<path d="M0 0 C0.66 0.33 1.32 0.66 2 1 C-2.30769231 5.92307692 -2.30769231 5.92307692 -5.8125 6.3125 C-6.8953125 6.1578125 -6.8953125 6.1578125 -8 6 C-7 3 -7 3 -3.5625 1.25 C-2.386875 0.8375 -1.21125 0.425 0 0 Z " fill="#2F3850" transform="translate(250,263)"/>
<path d="M0 0 C0.66 0.33 1.32 0.66 2 1 C1.01 2.485 1.01 2.485 0 4 C-0.66 4 -1.32 4 -2 4 C-2 4.66 -2 5.32 -2 6 C-2.99 6.33 -3.98 6.66 -5 7 C-5.33 6.34 -5.66 5.68 -6 5 C-6.66 4.67 -7.32 4.34 -8 4 C-6.71349294 3.30289269 -5.42059335 2.61757124 -4.125 1.9375 C-3.40570313 1.55464844 -2.68640625 1.17179687 -1.9453125 0.77734375 C-1.30335938 0.52082031 -0.66140625 0.26429688 0 0 Z " fill="#404A5F" transform="translate(260,258)"/>
<path d="M0 0 C4.85963179 0.60745397 8.7405518 2.72758967 13 5 C11.02 5.99 11.02 5.99 9 7 C8.67 6.01 8.34 5.02 8 4 C7.01 4.33 6.02 4.66 5 5 C2.3125 3.6875 2.3125 3.6875 0 2 C0 1.34 0 0.68 0 0 Z " fill="#5F6272" transform="translate(320,250)"/>
<path d="M0 0 C0.33 0 0.66 0 1 0 C1.18451025 10.55808656 1.18451025 10.55808656 0 15 C-0.33 15 -0.66 15 -1 15 C-2.125 11.6875 -2.125 11.6875 -3 8 C-2.34 7.01 -1.68 6.02 -1 5 C-0.61500109 3.34450469 -0.27206865 1.6777567 0 0 Z " fill="#484C5C" transform="translate(363,293)"/>
<path d="M0 0 C1.36125 0.37125 1.36125 0.37125 2.75 0.75 C0.48814546 3.01185454 -1.21983561 3.78921617 -4.25 4.75 C-5.24 4.42 -6.23 4.09 -7.25 3.75 C-4.05 -0.31153846 -4.05 -0.31153846 0 0 Z " fill="#4C5166" transform="translate(262.25,244.25)"/>
<path d="M0 0 C2.125 0.9375 2.125 0.9375 4 2 C2.3767313 2.6708712 0.75132422 3.33657029 -0.875 4 C-2.23238281 4.556875 -2.23238281 4.556875 -3.6171875 5.125 C-6 6 -6 6 -8 6 C-8.33 5.01 -8.66 4.02 -9 3 C-7.68 3.33 -6.36 3.66 -5 4 C-4.67 3.01 -4.34 2.02 -4 1 C-4 1.66 -4 2.32 -4 3 C-3.34 3 -2.68 3 -2 3 C-2 2.34 -2 1.68 -2 1 C-1.34 0.67 -0.68 0.34 0 0 Z " fill="#575E6E" transform="translate(302,336)"/>
<path d="M0 0 C2.97 0.495 2.97 0.495 6 1 C2.71536341 3.18975773 -0.20696275 3.99806563 -4 5 C-4.66 4.34 -5.32 3.68 -6 3 C-4.02 2.67 -2.04 2.34 0 2 C0 1.34 0 0.68 0 0 Z " fill="#353A52" transform="translate(272,347)"/>
<path d="M0 0 C-2.22825644 2.22825644 -3.65761628 2.69239369 -6.625 3.625 C-7.44226563 3.88539063 -8.25953125 4.14578125 -9.1015625 4.4140625 C-9.72804688 4.60742188 -10.35453125 4.80078125 -11 5 C-10.640625 3.08203125 -10.640625 3.08203125 -10 1 C-6.36806148 -1.11863081 -3.99237419 -1.14067834 0 0 Z " fill="#4D5162" transform="translate(334,263)"/>
<path d="M0 0 C2.97 1.98 2.97 1.98 6 4 C5 6 5 6 2 8 C-0.1519437 4.77208445 -0.20086443 3.71599191 0 0 Z " fill="#434E62" transform="translate(263,130)"/>
<path d="M0 0 C-3.28463659 2.18975773 -6.20696275 2.99806563 -10 4 C-10 3.01 -10 2.02 -10 1 C-6.42181037 -1.33958553 -4.07775191 -0.9267618 0 0 Z " fill="#4C5364" transform="translate(334,326)"/>
<path d="M0 0 C0 0.66 0 1.32 0 2 C-6.625 5.125 -6.625 5.125 -10 4 C-10 3.34 -10 2.68 -10 2 C-3.375 0 -3.375 0 0 0 Z " fill="#3B4154" transform="translate(346,320)"/>
<path d="M0 0 C1.65 0.33 3.3 0.66 5 1 C4.67 1.99 4.34 2.98 4 4 C2.35 4.33 0.7 4.66 -1 5 C-1.33 4.34 -1.66 3.68 -2 3 C-1.34 2.01 -0.68 1.02 0 0 Z " fill="#2F374E" transform="translate(277,283)"/>
<path d="M0 0 C3.8063457 0.67170806 7.35206816 1.72746564 11 3 C9.02 3.99 9.02 3.99 7 5 C7 4.34 7 3.68 7 3 C6.21625 3.20625 5.4325 3.4125 4.625 3.625 C3.75875 3.74875 2.8925 3.8725 2 4 C1.34 3.34 0.68 2.68 0 2 C0 1.34 0 0.68 0 0 Z " fill="#484E60" transform="translate(165,279)"/>
<path d="M0 0 C0.33 1.32 0.66 2.64 1 4 C-2.3 3.01 -5.6 2.02 -9 1 C-4.82091936 -1.08954032 -4.19589427 -1.16552619 0 0 Z " fill="#495262" transform="translate(153,265)"/>
<path d="M0 0 C0 0.99 0 1.98 0 3 C-4.625 5.125 -4.625 5.125 -8 4 C-3.375 0 -3.375 0 0 0 Z " fill="#1F2841" transform="translate(288,246)"/>
<path d="M0 0 C1.65 1.65 3.3 3.3 5 5 C3.68 5.99 2.36 6.98 1 8 C0.34 7.34 -0.32 6.68 -1 6 C-0.67 5.01 -0.34 4.02 0 3 C0 2.01 0 1.02 0 0 Z " fill="#3B445B" transform="translate(347,175)"/>
<path d="M0 0 C1.2077558 3.62326739 0.54311128 4.64146369 -1 8 C-2.32 7.67 -3.64 7.34 -5 7 C-3.35 4.69 -1.7 2.38 0 0 Z " fill="#43495E" transform="translate(158,142)"/>
<path d="M0 0 C6.75 1.875 6.75 1.875 9 3 C9 3.66 9 4.32 9 5 C6.23723823 4.47731534 3.6739124 3.89130413 1 3 C0.67 2.01 0.34 1.02 0 0 Z " fill="#09162F" transform="translate(194,291)"/>
<path d="M0 0 C1.9375 0.625 1.9375 0.625 4 2 C4.75 5.125 4.75 5.125 5 8 C4.34 8 3.68 8 3 8 C2.67 7.01 2.34 6.02 2 5 C1.01 4.34 0.02 3.68 -1 3 C-0.67 2.01 -0.34 1.02 0 0 Z " fill="#1C2946" transform="translate(115,200)"/>
<path d="M0 0 C4.77777778 4.77777778 4.77777778 4.77777778 6 9 C5.67 9.66 5.34 10.32 5 11 C4.34 11 3.68 11 3 11 C2.01 7.37 1.02 3.74 0 0 Z " fill="#636A78" transform="translate(352,181)"/>
<path d="M0 0 C2 3 2 3 2 6 C2.99 6.33 3.98 6.66 5 7 C3.02 7.66 1.04 8.32 -1 9 C-0.67 6.03 -0.34 3.06 0 0 Z " fill="#15213D" transform="translate(282,158)"/>
<path d="M0 0 C0.99 0.66 1.98 1.32 3 2 C1.02 3.32 -0.96 4.64 -3 6 C-3.33 5.01 -3.66 4.02 -4 3 C-3 1 -3 1 0 0 Z " fill="#1D2843" transform="translate(171,132)"/>
<path d="M0 0 C1.98 0.66 3.96 1.32 6 2 C6 2.66 6 3.32 6 4 C6.99 4.33 7.98 4.66 9 5 C5.62294375 4.46274105 2.303314 3.88935377 -1 3 C-0.67 2.01 -0.34 1.02 0 0 Z " fill="#515668" transform="translate(191,339)"/>
<path d="M0 0 C2.97 0.495 2.97 0.495 6 1 C3.06171403 3.50298434 0.82097239 4.46930939 -3 5 C-2.01 3.35 -1.02 1.7 0 0 Z " fill="#42485C" transform="translate(163,321)"/>
<path d="M0 0 C0.99 0.66 1.98 1.32 3 2 C-2.75 6 -2.75 6 -5 6 C-4.67 4.68 -4.34 3.36 -4 2 C-4 2.66 -4 3.32 -4 4 C-3.34 4 -2.68 4 -2 4 C-1.34 2.68 -0.68 1.36 0 0 Z " fill="#414659" transform="translate(190,309)"/>
<path d="M0 0 C2.29013653 3.4352048 2.17842973 4.985331 2 9 C1.01 8.67 0.02 8.34 -1 8 C-2 6 -2 6 -1.0625 2.875 C-0.5365625 1.451875 -0.5365625 1.451875 0 0 Z " fill="#131C32" transform="translate(360,306)"/>
<path d="M0 0 C3 1 3 1 4.1875 3.0625 C4.455625 3.701875 4.72375 4.34125 5 5 C4.01 5.495 4.01 5.495 3 6 C0.375 5.0625 0.375 5.0625 -2 4 C-1.34 2.68 -0.68 1.36 0 0 Z " fill="#303854" transform="translate(121,307)"/>
<path d="M0 0 C0 0.66 0 1.32 0 2 C-0.66 2 -1.32 2 -2 2 C-2.33 2.99 -2.66 3.98 -3 5 C-4.65 4.67 -6.3 4.34 -8 4 C-3.375 0 -3.375 0 0 0 Z " fill="#05132F" transform="translate(148,273)"/>
<path d="M0 0 C1.65 0 3.3 0 5 0 C5.33 1.32 5.66 2.64 6 4 C4.35 3.67 2.7 3.34 1 3 C0.67 2.01 0.34 1.02 0 0 Z " fill="#212942" transform="translate(306,244)"/>
<path d="M0 0 C2.31 0.66 4.62 1.32 7 2 C6.01 2.495 6.01 2.495 5 3 C5 3.99 5 4.98 5 6 C4.01 5.67 3.02 5.34 2 5 C0.8125 2.4375 0.8125 2.4375 0 0 Z " fill="#38405D" transform="translate(218,256)"/>
<path d="M0 0 C0.99 0.33 1.98 0.66 3 1 C2.67 1.99 2.34 2.98 2 4 C0.68 3.67 -0.64 3.34 -2 3 C-2 3.66 -2 4.32 -2 5 C-2.99 4.67 -3.98 4.34 -5 4 C-2.6875 1.9375 -2.6875 1.9375 0 0 Z " fill="#1D2741" transform="translate(338,211)"/>
<path d="M0 0 C2.64 0 5.28 0 8 0 C8.33 0.99 8.66 1.98 9 3 C4.545 2.01 4.545 2.01 0 1 C0 0.67 0 0.34 0 0 Z " fill="#04122C" transform="translate(227,351)"/>
<path d="M0 0 C2.64 0 5.28 0 8 0 C8 0.66 8 1.32 8 2 C8.99 2.33 9.98 2.66 11 3 C9 4 9 4 6.8359375 3.44140625 C6.02382812 3.15136719 5.21171875 2.86132812 4.375 2.5625 C3.55773437 2.27503906 2.74046875 1.98757813 1.8984375 1.69140625 C1.27195313 1.46324219 0.64546875 1.23507812 0 1 C0 0.67 0 0.34 0 0 Z " fill="#57596A" transform="translate(127,259)"/>
<path d="M0 0 C2.03144641 0.93446535 4.03533587 1.93224776 6 3 C4.68 3.99 3.36 4.98 2 6 C1.34 5.67 0.68 5.34 0 5 C0 4.34 0 3.68 0 3 C-0.66 2.34 -1.32 1.68 -2 1 C-1.34 0.67 -0.68 0.34 0 0 Z " fill="#424D62" transform="translate(340,209)"/>
<path d="M0 0 C0.33 0 0.66 0 1 0 C1 1.65 1 3.3 1 5 C-1.90600261 6.25664978 -3.79604584 7 -7 7 C-7 6.34 -7 5.68 -7 5 C-3.535 4.505 -3.535 4.505 0 4 C0 2.68 0 1.36 0 0 Z " fill="#5E626D" transform="translate(363,201)"/>
<path d="M0 0 C-2.39509338 2.89932357 -4.31245243 3.50168276 -8 4 C-8 3.01 -8 2.02 -8 1 C-2.25 -1.125 -2.25 -1.125 0 0 Z " fill="#07122E" transform="translate(181,315)"/>
<path d="M0 0 C3.73487777 0.4979837 5.81237635 0.87491756 9 3 C6.21176345 4.0326802 5.1322726 4.04509293 2.25 3.0625 C1.5075 2.711875 0.765 2.36125 0 2 C0 1.34 0 0.68 0 0 Z " fill="#3A3D51" transform="translate(156,276)"/>
</svg>
